Coordinates
version=1
nRows=9
nColumns=24
inDegrees=yes

Units are S.I. units (second, meters, Newtons, ...)
Angles are in degrees.

endheader
time	pelvis_tilt	pelvis_list	pelvis_rotation	pelvis_tx	pelvis_ty	pelvis_tz	hip_flexion_r	hip_adduction_r	hip_rotation_r	knee_angle_r	ankle_angle_r	subtalar_angle_r	mtp_angle_r	hip_flexion_l	hip_adduction_l	hip_rotation_l	knee_angle_l	ankle_angle_l	subtalar_angle_l	mtp_angle_l	lumbar_extension	lumbar_bending	lumbar_rotation
      0.80833333	      0.14919996	     -3.42508648	     -1.32378326	     -0.46852985	      1.06841163	      0.34241667	      8.12594761	      8.63814364	     -2.24474881	    -12.32075225	      2.03058582	     -9.47585808	     -0.37385123	     14.53148204	     -5.68560673	     -1.99203635	    -67.31307203	     -0.34762955	     -0.93445565	      5.85167840	      3.69090904	      6.82773149	     -2.32147777
      0.81250000	      0.16718724	     -3.32647099	     -1.35705356	     -0.46349234	      1.06899040	      0.34268411	      7.74972530	      8.56318964	     -2.06653141	    -12.22106687	      2.18721652	     -9.53389434	     -0.38140888	     15.10161003	     -5.56466533	     -1.83940378	    -67.21883105	      0.25113746	     -1.23558205	      5.81185422	      3.62656325	      6.69987399	     -2.22489403
      0.81666667	      0.18388082	     -3.22376006	     -1.40659670	     -0.45841717	      1.06956552	      0.34292449	      7.37171399	      8.47974653	     -1.89696200	    -12.11455744	      2.35801252	     -9.60959052	     -0.39053808	     15.64919923	     -5.43650493	     -1.71700850	    -67.05527118	      0.86845774	     -1.52559953	      5.76697058	      3.55821058	      6.57165287	     -2.12177604
      0.82083333	      0.20210113	     -3.12174131	     -1.45220744	     -0.45334413	      1.07012918	      0.34318421	      6.98651476	      8.39944827	     -1.71164781	    -12.00143034	      2.51633168	     -9.67749037	     -0.40001883	     16.17888002	     -5.30944941	     -1.58868734	    -66.82192284	      1.42750050	     -1.77315123	      5.72228645	      3.49236308	      6.43819582	     -2.01976067
      0.82500000	      0.21828765	     -3.01434491	     -1.50632056	     -0.44829820	      1.07066785	      0.34343553	      6.60663476	      8.31205119	     -1.52508772	    -11.89126252	      2.68333217	     -9.75658127	     -0.41083931	     16.69494108	     -5.17337084	     -1.47127609	    -66.52565487	      1.98967061	     -2.00756844	      5.67410473	      3.42474274	      6.29541676	     -1.91348537
      0.82916667	      0.23821259	     -2.91227010	     -1.56364678	     -0.44323672	      1.07120590	      0.34368299	      6.21546219	      8.22985705	     -1.33217046	    -11.76765072	      2.84351629	     -9.83620433	     -0.42300243	     17.18736306	     -5.04336609	     -1.36270555	    -66.16325458	      2.51395309	     -2.20869175	      5.62269796	      3.35990265	      6.16977536	     -1.80734160
      0.83333333	      0.27017080	     -2.80717670	     -1.62876326	     -0.43819127	      1.07173528	      0.34393036	      5.81174764	      8.14256069	     -1.13817694	    -11.63997447	      3.00412599	     -9.92033368	     -0.43676730	     17.64738078	     -4.91040793	     -1.26790614	    -65.73661276	      3.02240238	     -2.38967158	      5.56694756	      3.28155323	      6.03233855	     -1.69731392
      0.83750000	      0.29462032	     -2.70731507	     -1.68503331	     -0.43313370	      1.07222801	      0.34417391	      5.40866326	      8.06209127	     -0.94191400	    -11.50462333	      3.15836302	    -10.00833104	     -0.45185700	     18.10062836	     -4.78107454	     -1.16728783	    -65.25216650	      3.49082683	     -2.54565088	      5.50872055	      3.20149181	      5.90434765	     -1.58953427
      0.84166667	      0.32526246	     -2.60892927	     -1.74934316	     -0.42807092	      1.07271803	      0.34440172	      4.99724325	      7.97953559	     -0.74624450	    -11.36493318	      3.30884943	    -10.09975140	     -0.46869534	     18.52362391	     -4.65201455	     -1.07753398	    -64.69994043	      3.93843752	     -2.69080842	      5.44672580	      3.12421284	      5.78074426	     -1.48137233
